<mxfile host="app.diagrams.net" modified="2022-03-21T03:47:39.093Z" agent="5.0 (Macintosh; Intel Mac OS X 10_15_7) AppleWebKit/605.1.15 (KHTML, like Gecko) Version/15.3 Safari/605.1.15" etag="ZXjDW_sy7npwy2vOUqht" version="17.1.3" type="github">
  <diagram id="Vc2U3ieMGSlSjpI3HWe4" name="Page-1">
    <mxGraphModel dx="786" dy="545" grid="1" gridSize="10" guides="1" tooltips="1" connect="1" arrows="1" fold="1" page="1" pageScale="1" pageWidth="827" pageHeight="1169" math="0" shadow="0">
      <root>
        <mxCell id="0" />
        <mxCell id="1" parent="0" />
        <mxCell id="0g7858ayTAy2xBlj7Z5w-1" value="" style="whiteSpace=wrap;html=1;aspect=fixed;fillColor=#d5e8d4;strokeColor=#82b366;" vertex="1" parent="1">
          <mxGeometry x="576" y="266" width="50" height="50" as="geometry" />
        </mxCell>
        <mxCell id="0g7858ayTAy2xBlj7Z5w-2" value="" style="whiteSpace=wrap;html=1;aspect=fixed;fillColor=#d5e8d4;strokeColor=#82b366;" vertex="1" parent="1">
          <mxGeometry x="404" y="265" width="50" height="50" as="geometry" />
        </mxCell>
        <mxCell id="0g7858ayTAy2xBlj7Z5w-3" value="" style="whiteSpace=wrap;html=1;aspect=fixed;fillColor=#d5e8d4;strokeColor=#82b366;" vertex="1" parent="1">
          <mxGeometry x="215" y="265" width="50" height="50" as="geometry" />
        </mxCell>
        <mxCell id="0g7858ayTAy2xBlj7Z5w-4" value="&lt;font&gt;&lt;b&gt;&lt;span style=&quot;font-size: 14px&quot;&gt;T&lt;/span&gt;&lt;span style=&quot;font-size: 11.666666030883789px&quot;&gt;&lt;sub&gt;2&lt;/sub&gt;&lt;/span&gt;&lt;/b&gt;&lt;/font&gt;" style="ellipse;whiteSpace=wrap;html=1;fillColor=#fff2cc;strokeColor=#d6b656;" vertex="1" parent="1">
          <mxGeometry x="511" y="380" width="70" height="40" as="geometry" />
        </mxCell>
        <mxCell id="0g7858ayTAy2xBlj7Z5w-5" value="&lt;font&gt;&lt;b&gt;&lt;span style=&quot;font-size: 14px&quot;&gt;T&lt;/span&gt;&lt;span style=&quot;font-size: 11.666666030883789px&quot;&gt;&lt;sub&gt;1&lt;/sub&gt;&lt;/span&gt;&lt;/b&gt;&lt;/font&gt;" style="ellipse;whiteSpace=wrap;html=1;fillColor=#fff2cc;strokeColor=#d6b656;" vertex="1" parent="1">
          <mxGeometry x="480" y="140" width="70" height="40" as="geometry" />
        </mxCell>
        <mxCell id="0g7858ayTAy2xBlj7Z5w-6" value="" style="ellipse;whiteSpace=wrap;html=1;aspect=fixed;rotation=5;fillColor=#000000;" vertex="1" parent="1">
          <mxGeometry x="235" y="285" width="10" height="10" as="geometry" />
        </mxCell>
        <mxCell id="0g7858ayTAy2xBlj7Z5w-7" value="" style="ellipse;whiteSpace=wrap;html=1;aspect=fixed;rotation=5;fillColor=#000000;" vertex="1" parent="1">
          <mxGeometry x="414" y="288" width="10" height="10" as="geometry" />
        </mxCell>
        <mxCell id="0g7858ayTAy2xBlj7Z5w-8" value="" style="ellipse;whiteSpace=wrap;html=1;aspect=fixed;rotation=5;fillColor=#000000;" vertex="1" parent="1">
          <mxGeometry x="587" y="280" width="10" height="10" as="geometry" />
        </mxCell>
        <mxCell id="0g7858ayTAy2xBlj7Z5w-9" value="&lt;font style=&quot;font-size: 14px&quot;&gt;&lt;b&gt;R&lt;sub&gt;1&lt;/sub&gt;&lt;/b&gt;&lt;/font&gt;" style="text;html=1;align=center;verticalAlign=middle;resizable=0;points=[];autosize=1;strokeColor=none;fillColor=none;" vertex="1" parent="1">
          <mxGeometry x="225" y="245" width="30" height="20" as="geometry" />
        </mxCell>
        <mxCell id="0g7858ayTAy2xBlj7Z5w-10" value="&lt;font style=&quot;font-size: 14px&quot;&gt;&lt;b&gt;R&lt;sub&gt;2&lt;/sub&gt;&lt;/b&gt;&lt;/font&gt;" style="text;html=1;align=center;verticalAlign=middle;resizable=0;points=[];autosize=1;strokeColor=none;fillColor=none;perimeterSpacing=1;" vertex="1" parent="1">
          <mxGeometry x="395" y="245" width="30" height="20" as="geometry" />
        </mxCell>
        <mxCell id="0g7858ayTAy2xBlj7Z5w-11" value="&lt;font style=&quot;font-size: 14px&quot;&gt;&lt;b&gt;R&lt;sub&gt;3&lt;/sub&gt;&lt;/b&gt;&lt;/font&gt;" style="text;html=1;align=center;verticalAlign=middle;resizable=0;points=[];autosize=1;strokeColor=none;fillColor=none;" vertex="1" parent="1">
          <mxGeometry x="585" y="245" width="30" height="20" as="geometry" />
        </mxCell>
        <mxCell id="0g7858ayTAy2xBlj7Z5w-12" value="" style="endArrow=classic;html=1;rounded=0;fontSize=14;exitX=1;exitY=1;exitDx=0;exitDy=0;entryX=-0.133;entryY=1.05;entryDx=0;entryDy=0;entryPerimeter=0;" edge="1" parent="1" source="0g7858ayTAy2xBlj7Z5w-5" target="0g7858ayTAy2xBlj7Z5w-11">
          <mxGeometry width="50" height="50" relative="1" as="geometry">
            <mxPoint x="380" y="310" as="sourcePoint" />
            <mxPoint x="570" y="280" as="targetPoint" />
          </mxGeometry>
        </mxCell>
        <mxCell id="0g7858ayTAy2xBlj7Z5w-13" value="" style="endArrow=classic;html=1;rounded=0;fontSize=14;startArrow=none;exitX=0.957;exitY=0.8;exitDx=0;exitDy=0;exitPerimeter=0;" edge="1" parent="1" source="0g7858ayTAy2xBlj7Z5w-17">
          <mxGeometry width="50" height="50" relative="1" as="geometry">
            <mxPoint x="340" y="380" as="sourcePoint" />
            <mxPoint x="620" y="320" as="targetPoint" />
            <Array as="points">
              <mxPoint x="610" y="470" />
            </Array>
          </mxGeometry>
        </mxCell>
        <mxCell id="0g7858ayTAy2xBlj7Z5w-15" value="" style="endArrow=classic;html=1;rounded=0;fontSize=14;entryX=0.7;entryY=0.025;entryDx=0;entryDy=0;entryPerimeter=0;exitX=0.5;exitY=1;exitDx=0;exitDy=0;" edge="1" parent="1" source="0g7858ayTAy2xBlj7Z5w-1" target="0g7858ayTAy2xBlj7Z5w-4">
          <mxGeometry width="50" height="50" relative="1" as="geometry">
            <mxPoint x="380" y="310" as="sourcePoint" />
            <mxPoint x="430" y="260" as="targetPoint" />
          </mxGeometry>
        </mxCell>
        <mxCell id="0g7858ayTAy2xBlj7Z5w-16" value="" style="endArrow=classic;html=1;rounded=0;fontSize=14;entryX=0;entryY=0.5;entryDx=0;entryDy=0;exitX=0.629;exitY=-0.025;exitDx=0;exitDy=0;exitPerimeter=0;" edge="1" parent="1" source="0g7858ayTAy2xBlj7Z5w-17" target="0g7858ayTAy2xBlj7Z5w-2">
          <mxGeometry width="50" height="50" relative="1" as="geometry">
            <mxPoint x="270" y="290" as="sourcePoint" />
            <mxPoint x="430" y="260" as="targetPoint" />
          </mxGeometry>
        </mxCell>
        <mxCell id="0g7858ayTAy2xBlj7Z5w-17" value="&lt;font&gt;&lt;b&gt;&lt;font size=&quot;3&quot;&gt;T&lt;/font&gt;&lt;font size=&quot;2&quot;&gt;&lt;sub&gt;3&lt;/sub&gt;&lt;/font&gt;&lt;/b&gt;&lt;/font&gt;" style="ellipse;whiteSpace=wrap;html=1;fillColor=#fff2cc;strokeColor=#d6b656;" vertex="1" parent="1">
          <mxGeometry x="290" y="350" width="70" height="40" as="geometry" />
        </mxCell>
        <mxCell id="0g7858ayTAy2xBlj7Z5w-18" value="" style="endArrow=classic;html=1;rounded=0;fontSize=14;entryX=0.043;entryY=0.3;entryDx=0;entryDy=0;exitX=1.067;exitY=0.7;exitDx=0;exitDy=0;exitPerimeter=0;entryPerimeter=0;" edge="1" parent="1" source="0g7858ayTAy2xBlj7Z5w-9" target="0g7858ayTAy2xBlj7Z5w-5">
          <mxGeometry width="50" height="50" relative="1" as="geometry">
            <mxPoint x="380" y="310" as="sourcePoint" />
            <mxPoint x="430" y="260" as="targetPoint" />
            <Array as="points">
              <mxPoint x="250" y="150" />
              <mxPoint x="370" y="110" />
            </Array>
          </mxGeometry>
        </mxCell>
        <mxCell id="0g7858ayTAy2xBlj7Z5w-20" value="" style="ellipse;whiteSpace=wrap;html=1;aspect=fixed;rotation=5;fillColor=#000000;" vertex="1" parent="1">
          <mxGeometry x="437" y="289" width="10" height="10" as="geometry" />
        </mxCell>
        <mxCell id="0g7858ayTAy2xBlj7Z5w-21" value="" style="ellipse;whiteSpace=wrap;html=1;aspect=fixed;rotation=5;fillColor=#000000;" vertex="1" parent="1">
          <mxGeometry x="605" y="295" width="10" height="10" as="geometry" />
        </mxCell>
        <mxCell id="0g7858ayTAy2xBlj7Z5w-23" value="&lt;font&gt;&lt;b&gt;&lt;font size=&quot;3&quot;&gt;T&lt;/font&gt;&lt;font size=&quot;2&quot;&gt;&lt;sub&gt;4&lt;/sub&gt;&lt;/font&gt;&lt;/b&gt;&lt;/font&gt;" style="ellipse;whiteSpace=wrap;html=1;fillColor=#fff2cc;strokeColor=#d6b656;" vertex="1" parent="1">
          <mxGeometry x="300" y="140" width="70" height="40" as="geometry" />
        </mxCell>
        <mxCell id="0g7858ayTAy2xBlj7Z5w-24" value="" style="endArrow=classic;html=1;rounded=0;fontSize=14;exitX=1;exitY=1;exitDx=0;exitDy=0;entryX=0.75;entryY=0;entryDx=0;entryDy=0;" edge="1" parent="1" target="0g7858ayTAy2xBlj7Z5w-2">
          <mxGeometry width="50" height="50" relative="1" as="geometry">
            <mxPoint x="499.878737341529" y="179.14213562373095" as="sourcePoint" />
            <mxPoint x="530.13" y="285" as="targetPoint" />
          </mxGeometry>
        </mxCell>
        <mxCell id="0g7858ayTAy2xBlj7Z5w-25" value="" style="endArrow=classic;html=1;rounded=0;entryX=0.657;entryY=1.025;entryDx=0;entryDy=0;entryPerimeter=0;" edge="1" parent="1" target="0g7858ayTAy2xBlj7Z5w-23">
          <mxGeometry width="50" height="50" relative="1" as="geometry">
            <mxPoint x="400" y="270" as="sourcePoint" />
            <mxPoint x="350" y="210" as="targetPoint" />
          </mxGeometry>
        </mxCell>
        <mxCell id="0g7858ayTAy2xBlj7Z5w-26" value="" style="endArrow=classic;html=1;rounded=0;fontSize=14;entryX=0.4;entryY=0.05;entryDx=0;entryDy=0;entryPerimeter=0;exitX=1;exitY=1;exitDx=0;exitDy=0;" edge="1" parent="1" source="0g7858ayTAy2xBlj7Z5w-2" target="0g7858ayTAy2xBlj7Z5w-4">
          <mxGeometry width="50" height="50" relative="1" as="geometry">
            <mxPoint x="460" y="300" as="sourcePoint" />
            <mxPoint x="580" y="290" as="targetPoint" />
          </mxGeometry>
        </mxCell>
        <mxCell id="0g7858ayTAy2xBlj7Z5w-27" value="" style="endArrow=classic;html=1;rounded=0;fontSize=14;entryX=1;entryY=1;entryDx=0;entryDy=0;exitX=0;exitY=0;exitDx=0;exitDy=0;" edge="1" parent="1" source="0g7858ayTAy2xBlj7Z5w-17" target="0g7858ayTAy2xBlj7Z5w-3">
          <mxGeometry width="50" height="50" relative="1" as="geometry">
            <mxPoint x="344.03" y="359" as="sourcePoint" />
            <mxPoint x="414" y="300" as="targetPoint" />
          </mxGeometry>
        </mxCell>
      </root>
    </mxGraphModel>
  </diagram>
</mxfile>
